<svg width="17" height="17" viewBox="0 0 17 17" fill="none" xmlns="http://www.w3.org/2000/svg">
<path fill-rule="evenodd" clip-rule="evenodd" d="M8.23906 6.32906L13.6641 0.904063C14.2028 0.365312 15.0778 0.365312 15.6166 0.904063C16.1553 1.44281 16.1553 2.31781 15.6166 2.85656L10.1916 8.28156L15.6166 13.7066C16.1441 14.2328 16.1441 15.0891 15.6166 15.6166C15.0891 16.1441 14.2328 16.1441 13.7066 15.6166L8.28156 10.1916L2.85656 15.6166C2.31781 16.1553 1.44281 16.1553 0.904063 15.6166C0.365312 15.0778 0.365312 14.2028 0.904063 13.6641L6.32906 8.23906L0.904063 2.81406C0.376562 2.28781 0.376562 1.43156 0.904063 0.904063C1.43156 0.376562 2.28781 0.376562 2.81406 0.904063L8.23906 6.32906Z" fill="white"/>
</svg>
