<svg width="32" height="32" viewBox="0 0 32 32" fill="none" xmlns="http://www.w3.org/2000/svg">
<g opacity="0.48">
<path fill-rule="evenodd" clip-rule="evenodd" d="M6.66602 24.6673H11.666V11.334H6.66602V24.6673Z" fill="#C0BCF0"/>
<path fill-rule="evenodd" clip-rule="evenodd" d="M26.6673 24.6673V17.5323C26.6673 14.0284 25.8673 11.334 21.5387 11.334C19.4581 11.334 18.0622 12.4132 17.4921 13.4361H17.4336V11.6574H13.334V24.6673H17.6049V18.2327C17.6049 16.5349 17.9446 14.8909 20.17 14.8909C22.3643 14.8909 22.3924 16.8318 22.3924 18.3402V24.6673H26.6673Z" fill="#C0BCF0"/>
<path fill-rule="evenodd" clip-rule="evenodd" d="M9.1672 9.66602C10.5461 9.66602 11.666 8.54687 11.666 7.16611C11.666 5.78607 10.5461 4.66602 9.1672 4.66602C7.78264 4.66602 6.66602 5.78607 6.66602 7.16611C6.66602 8.54687 7.78264 9.66602 9.1672 9.66602Z" fill="#C0BCF0"/>
</g>
</svg>
