<svg width="205" height="50" viewBox="0 0 205 50" fill="none" xmlns="http://www.w3.org/2000/svg">
<path d="M67.1988 24.7408H69.6485V17.8715C69.6485 16.195 70.9317 14.9375 72.5881 14.9375C74.2213 14.9375 75.2945 16.1484 75.2945 17.9647V24.7408H77.7441V17.8715C77.7441 16.195 79.0273 14.9375 80.6838 14.9375C82.3169 14.9375 83.3901 16.1484 83.3901 17.9647V24.7408H85.8398V17.9414C85.8398 14.7745 83.8334 12.5624 80.8238 12.5624C79.1906 12.5624 77.6742 13.2377 76.6943 14.402C75.8077 13.2144 74.5246 12.5624 73.0081 12.5624C71.6782 12.5624 70.4651 13.0747 69.6485 13.9595V12.8651H67.1988V24.7408Z" fill="white"/>
<path d="M93.9836 25.0435C95.6167 25.0435 96.9932 24.4381 97.9964 23.4368V24.7408H100.446V12.8651H97.9964V14.1691C96.9932 13.1678 95.6167 12.5624 93.9836 12.5624C90.5073 12.5624 87.8243 15.2635 87.8243 18.8029C87.8243 22.3424 90.5073 25.0435 93.9836 25.0435ZM94.1935 22.6684C92.0005 22.6684 90.3907 21.0616 90.3907 18.8029C90.3907 16.5442 92.0005 14.9375 94.1935 14.9375C96.4333 14.9375 98.0197 16.5675 98.0197 18.8029C98.0197 21.0384 96.4333 22.6684 94.1935 22.6684Z" fill="white"/>
<path d="M103.359 24.7408H105.809V12.8651H103.359V24.7408ZM104.572 10.8626C105.459 10.8626 106.159 10.164 106.159 9.27913C106.159 8.39428 105.459 7.71899 104.572 7.71899C103.686 7.71899 103.009 8.39428 103.009 9.27913C103.009 10.164 103.686 10.8626 104.572 10.8626Z" fill="white"/>
<path d="M108.85 24.7408H111.3V7.97514H108.85V24.7408Z" fill="white"/>
<path d="M115.881 25.0668C116.744 25.0668 117.537 24.3449 117.537 23.3902C117.537 22.4355 116.744 21.7136 115.881 21.7136C115.017 21.7136 114.224 22.4355 114.224 23.3902C114.224 24.3449 115.017 25.0668 115.881 25.0668Z" fill="white"/>
<path d="M120.33 24.7408H122.78V18.5701C122.78 16.521 124.296 15.1471 126.513 15.1471H127.493V12.8651H126.513C124.81 12.8651 123.666 13.3541 122.78 14.4718V12.8651H120.33V24.7408Z" fill="white"/>
<path d="M133.954 25.0435C135.424 25.0435 136.754 24.4846 137.617 23.5532V24.7408H140.067V12.8651H137.617V19.6179C137.617 21.2945 136.217 22.6684 134.374 22.6684C132.624 22.6684 131.458 21.4575 131.458 19.5248V12.8651H129.008V19.5947C129.008 22.8314 130.991 25.0435 133.954 25.0435Z" fill="white"/>
<path d="M66.0323 49.9998H68.482V47.2987H76.9976V49.9998H79.4473V44.9701H77.6508V35.423H68.552V40.7787C68.552 41.8732 68.552 44.9701 66.2889 44.9701H66.0323V49.9998ZM69.7652 44.9701C70.6984 44.062 70.9783 42.2923 70.9783 40.3363V37.7516H75.2011V44.9701H69.7652Z" fill="white"/>
<path d="M80.1326 47.4151H80.9492C83.6555 47.4151 84.892 45.8084 84.962 43.0141L85.102 37.7516H89.5347V47.2987H91.9844V35.423H82.7223L82.5356 42.6183C82.489 44.5743 81.8124 44.9701 80.1326 44.9701V47.4151Z" fill="white"/>
<path d="M94.0898 47.2987H97.0061L99.2458 43.6894H102.279V47.2987H104.728V35.423H98.8959C96.2596 35.423 94.2998 37.1462 94.2998 39.5679C94.2998 41.1979 95.2797 42.5252 96.7028 43.2004L94.0898 47.2987ZM98.8959 41.3609C97.6594 41.3609 96.7962 40.6157 96.7962 39.5679C96.7962 38.4967 97.6594 37.7516 98.8959 37.7516H102.279V41.3609H98.8959Z" fill="white"/>
<path d="M119.354 47.6014C122.947 47.6014 125.793 44.8071 125.793 41.4074C125.793 37.9612 123.11 35.2368 119.728 35.2368C117.954 35.2368 116.181 35.9819 115.271 37.0996C115.761 34.1656 116.928 33.2342 120.404 32.9082L124.44 32.5589L124.23 30.1605L120.264 30.5098C114.758 30.9755 112.775 33.3739 112.775 39.5446C112.775 41.454 113.078 43.084 113.685 44.2716C114.688 46.2043 116.811 47.6014 119.354 47.6014ZM119.378 45.2263C117.161 45.2263 115.528 43.5963 115.528 41.4074C115.528 39.2186 117.161 37.6119 119.378 37.6119C121.594 37.6119 123.227 39.2186 123.227 41.4074C123.227 43.5963 121.594 45.2263 119.378 45.2263Z" fill="white"/>
<path d="M127.894 47.2987H129.971L136.363 39.5213V47.2987H138.813V35.423H136.783L130.344 43.2936V35.423H127.894V47.2987Z" fill="white"/>
<path d="M145.623 47.6014C148.889 47.6014 150.872 45.9016 150.872 43.6196C150.872 42.2923 150.219 41.3842 149.169 40.9184C149.449 40.7089 150.359 39.8939 150.359 38.4967C150.359 36.5175 148.562 35.1203 145.716 35.1203C144.083 35.1203 142.427 35.586 141.027 36.6572L142.38 38.4502C143.196 37.8447 144.386 37.4489 145.6 37.4489C146.976 37.4489 147.839 37.9612 147.839 38.7995C147.839 39.5912 147.069 40.1267 145.903 40.1267H143.5V42.3622H146.066C147.396 42.3622 148.236 42.8744 148.236 43.7127C148.236 44.6674 147.186 45.2729 145.576 45.2729C144.083 45.2729 142.87 44.7606 141.843 43.899L140.443 45.692C141.797 46.9494 143.616 47.6014 145.623 47.6014Z" fill="white"/>
<path d="M153.093 47.2987H155.543V42.4553H161.585V47.2987H164.035V35.423H161.585V40.1267H155.543V35.423H153.093V47.2987Z" fill="white"/>
<path d="M172.477 47.6014C174.507 47.6014 176.467 46.7398 177.867 45.2263L176.257 43.6196C175.417 44.5044 174.204 45.2263 172.617 45.2263C170.634 45.2263 169.211 44.1319 168.721 42.5484H178.473C178.52 42.106 178.543 41.7334 178.543 41.4074C178.543 37.868 175.814 35.1203 172.337 35.1203C168.885 35.1203 166.132 37.8913 166.132 41.3609C166.132 44.8537 168.908 47.6014 172.477 47.6014ZM168.698 40.313C169.094 38.5666 170.588 37.4489 172.407 37.4489C174.227 37.4489 175.697 38.5666 176.094 40.313H168.698Z" fill="white"/>
<path d="M186.124 47.6014C188.41 47.6014 190.463 46.4371 191.56 44.5044L189.67 43.247C188.783 44.5743 187.617 45.2263 186.217 45.2263C184.024 45.2263 182.391 43.5963 182.391 41.3609C182.391 39.1487 183.954 37.4955 186.124 37.4955C187.477 37.4955 188.69 38.1242 189.553 39.2885L191.396 37.9379C190.253 36.1682 188.27 35.1203 186.077 35.1203C182.554 35.1203 179.824 37.868 179.824 41.3609C179.824 44.8537 182.601 47.6014 186.124 47.6014Z" fill="white"/>
<path d="M198.537 47.6014C200.171 47.6014 201.547 46.996 202.55 45.9947V47.2987H205V35.423H202.55V36.727C201.547 35.7258 200.171 35.1203 198.537 35.1203C195.061 35.1203 192.378 37.8215 192.378 41.3609C192.378 44.9003 195.061 47.6014 198.537 47.6014ZM198.747 45.2263C196.554 45.2263 194.945 43.6196 194.945 41.3609C194.945 39.1022 196.554 37.4955 198.747 37.4955C200.987 37.4955 202.574 39.1255 202.574 41.3609C202.574 43.5963 200.987 45.2263 198.747 45.2263Z" fill="white"/>
<path fill-rule="evenodd" clip-rule="evenodd" d="M49.9596 14.041C49.9596 12.5383 48.7373 11.3184 47.2317 11.3184C45.7262 11.3184 44.5039 12.5383 44.5039 14.041V45.2757C44.5039 46.7783 45.7262 47.9983 47.2317 47.9983C48.7373 47.9983 49.9596 46.7783 49.9596 45.2757V14.041Z" fill="url(#paint0_linear)"/>
<path fill-rule="evenodd" clip-rule="evenodd" d="M38.6578 8.60102C38.6578 7.09834 37.4355 5.87842 35.9299 5.87842C34.4244 5.87842 33.2021 7.09834 33.2021 8.60102V45.2809C33.2021 46.7836 34.4244 48.0035 35.9299 48.0035C37.4355 48.0035 38.6578 46.7836 38.6578 45.2809V8.60102Z" fill="url(#paint1_linear)"/>
<path fill-rule="evenodd" clip-rule="evenodd" d="M24.6346 0L24.6368 0.000194504C25.2301 0.00175028 25.7788 0.192722 26.2259 0.515545C26.4933 0.707683 26.7284 0.950189 26.9153 1.23742C27.1444 1.58786 27.2949 1.99392 27.3416 2.4309L27.343 2.44451L27.3432 2.44548C27.3525 2.53688 27.3572 2.62809 27.3572 2.7191V2.72261V45.304C27.3572 46.8066 26.1349 48.0266 24.6294 48.0266H2.73492C1.22954 48.0266 0.00707875 46.8066 0.00707875 45.304V13.3639C-0.071639 12.2788 0.510171 11.2057 1.5524 10.7088L23.4131 0.285485C23.6678 0.158495 23.9453 0.0700099 24.2375 0.0280039H24.2377H24.2381L24.248 0.0264482L24.2514 0.0260592L24.2543 0.0256703L24.2634 0.0245035L24.265 0.0241145H24.2656C24.3856 0.00797336 24.5058 0.000194472 24.6257 0H24.6294H24.6346ZM5.46276 14.8788V42.5814H21.9015V7.04085L5.46276 14.8788Z" fill="url(#paint2_linear)"/>
<defs>
<linearGradient id="paint0_linear" x1="47.2317" y1="54.58" x2="47.2317" y2="14.7817" gradientUnits="userSpaceOnUse">
<stop stop-color="#5F11F2"/>
<stop offset="1" stop-color="#AA43CD"/>
</linearGradient>
<linearGradient id="paint1_linear" x1="35.9299" y1="55.5625" x2="35.9299" y2="9.85595" gradientUnits="userSpaceOnUse">
<stop stop-color="#FF5B6F"/>
<stop offset="1" stop-color="#FF9852"/>
</linearGradient>
<linearGradient id="paint2_linear" x1="7.87258" y1="10.3743" x2="21.8557" y2="43.8426" gradientUnits="userSpaceOnUse">
<stop stop-color="#49DEFF"/>
<stop offset="1" stop-color="#007CFF"/>
</linearGradient>
</defs>
</svg>
