<svg width="36" height="36" viewBox="0 0 36 36" fill="none" xmlns="http://www.w3.org/2000/svg">
<path fill-rule="evenodd" clip-rule="evenodd" d="M7.77085 14.7199C8.47421 9.79419 12.7057 6 17.8203 6C22.172 6 25.8814 8.74688 27.3256 12.594L24.7089 13.5764C23.6591 10.78 20.9655 8.79507 17.8203 8.79507C13.857 8.79507 10.616 11.9467 10.4685 15.888C10.4439 16.5459 9.96346 17.0974 9.31517 17.212C6.75032 17.6652 4.79507 19.9162 4.79507 22.6205C4.79507 25.6539 7.25286 28.1127 10.2729 28.1127H24.3201V30.9077H10.2729C5.70368 30.9077 2 27.1921 2 22.6205C2 18.9201 4.42492 15.7833 7.77085 14.7199Z" fill="url(#paint0_linear)"/>
<path fill-rule="evenodd" clip-rule="evenodd" d="M24.3206 14.3083C20.524 14.3083 17.4357 17.3987 17.4357 21.2104C17.4357 25.022 20.524 28.1125 24.3206 28.1125C28.1171 28.1125 31.2054 25.022 31.2054 21.2104C31.2054 17.3987 28.1171 14.3083 24.3206 14.3083ZM14.6406 21.2104C14.6406 15.8605 18.9749 11.5132 24.3206 11.5132C29.6663 11.5132 34.0005 15.8605 34.0005 21.2104C34.0005 26.5602 29.6663 30.9076 24.3206 30.9076C18.9749 30.9076 14.6406 26.5602 14.6406 21.2104Z" fill="url(#paint1_linear)"/>
<defs>
<linearGradient id="paint0_linear" x1="21.0248" y1="30.1623" x2="9.84171" y2="6.67808" gradientUnits="userSpaceOnUse">
<stop stop-color="#00BBDF"/>
<stop offset="1" stop-color="#A8FF39"/>
</linearGradient>
<linearGradient id="paint1_linear" x1="35.3999" y1="29.5133" x2="20.3994" y2="12.5572" gradientUnits="userSpaceOnUse">
<stop stop-color="#00BBDF"/>
<stop offset="1" stop-color="#A8FF39"/>
</linearGradient>
</defs>
</svg>
