<svg width="42" height="30" viewBox="0 0 42 30" fill="none" xmlns="http://www.w3.org/2000/svg">
<path fill-rule="evenodd" clip-rule="evenodd" d="M20.2583 2.72728C15.0019 2.72728 10.6671 6.79251 10.2597 11.9712C10.2082 12.626 9.69336 13.1514 9.03483 13.2211C5.51456 13.5937 2.75 16.5835 2.75 20.2272C2.75 24.1261 5.91265 27.2727 9.78254 27.2727H22.1286C19.5901 25.1375 17.9785 21.9394 17.9785 18.3737C17.9785 12.3982 22.5047 7.45462 28.3345 6.8169C26.5046 4.33329 23.5635 2.72728 20.2583 2.72728ZM31.6186 6.91933C29.497 2.81743 25.2095 0 20.2583 0C13.9048 0 8.64348 4.63623 7.64792 10.6884C3.26621 11.6639 0 15.5727 0 20.2272C0 25.6105 4.37193 29.9999 9.78254 29.9999H29.5763C29.5889 30 29.6015 30 29.6142 30C36.0476 30 41.25 24.78 41.25 18.3737C41.25 12.6482 37.0945 7.87013 31.6186 6.91933ZM29.6398 27.2727C34.5208 27.2588 38.5 23.287 38.5 18.3737C38.5 13.4518 34.5068 9.47461 29.6142 9.47461C24.7215 9.47461 20.7285 13.4518 20.7285 18.3737C20.7285 23.2846 24.7036 27.2548 29.5812 27.2727H29.6398V27.2727Z" fill="url(#paint0_linear)"/>
<defs>
<linearGradient id="paint0_linear" x1="8.28946" y1="3.07964" x2="24.7599" y2="31.0112" gradientUnits="userSpaceOnUse">
<stop stop-color="#C2FF42"/>
<stop offset="1" stop-color="#009FBF"/>
</linearGradient>
</defs>
</svg>
