<svg width="32" height="32" viewBox="0 0 32 32" fill="none" xmlns="http://www.w3.org/2000/svg">
<g opacity="0.48">
<path fill-rule="evenodd" clip-rule="evenodd" d="M6.97576 8H4.00125C3.144 8 3 8.39877 3 8.82442C3 9.59283 4.00125 13.4663 7.66201 18.5898C10.092 22.0913 13.5525 23.9709 16.6688 23.9709C18.5565 23.9709 18.7838 23.5452 18.7838 22.8328V20.1848C18.7838 19.3313 18.957 19.1879 19.5555 19.1879C19.9853 19.1879 20.757 19.4164 22.5008 21.0966C24.5033 23.0882 24.8475 24 25.9613 24H28.9066C29.7661 24 30.1643 23.5721 29.9371 22.7477C29.6783 21.921 28.7063 20.7247 27.4486 19.3022C26.7623 18.5046 25.734 17.622 25.419 17.1963C24.9893 16.625 25.104 16.3988 25.419 15.8857C25.3898 15.8857 28.9921 10.8183 29.3656 9.10893C29.5658 8.4839 29.3656 8.02688 28.4791 8.02688H25.5338C24.789 8.02688 24.447 8.42565 24.2468 8.85354C24.2468 8.85354 22.7303 12.4985 20.6153 14.8597C19.929 15.543 19.614 15.7715 19.2428 15.7715C19.0425 15.7715 18.7838 15.543 18.7838 14.9179V9.08205C18.7838 8.34052 18.5565 8 17.9265 8H13.2938C12.837 8 12.5513 8.34052 12.5513 8.68328C12.5513 9.39345 13.6088 9.56595 13.7235 11.5575V15.8857C13.7235 16.8244 13.5525 16.9969 13.179 16.9969C12.18 16.9969 9.74776 13.3229 8.28976 9.13806C8.00401 8.3114 7.71826 8 6.97576 8V8Z" fill="#C0BCF0"/>
</g>
</svg>
