<svg width="32" height="32" viewBox="0 0 32 32" fill="none" xmlns="http://www.w3.org/2000/svg">
<g opacity="0.48">
<path fill-rule="evenodd" clip-rule="evenodd" d="M5 15.6666C5 13.2124 5.44125 11.0474 6.11046 9.77033C6.4304 8.99447 6.97164 8.33459 7.65551 7.86935C8.88196 6.97351 12.0067 6.33496 15.6647 6.33496C19.3227 6.33496 22.4475 6.97351 23.6739 7.86935C24.3578 8.33459 24.899 8.99447 25.219 9.77033C25.8882 11.0474 26.3294 13.2124 26.3294 15.6666C26.3294 18.1208 25.8882 20.2857 25.219 21.5628C24.899 22.3387 24.3578 22.9986 23.6739 23.4638C22.4475 24.3597 19.3227 24.9982 15.6647 24.9982C12.0067 24.9982 8.88196 24.3597 7.65551 23.4638C6.97164 22.9986 6.4304 22.3387 6.11046 21.5628C5.44125 20.2857 5 18.1208 5 15.6666ZM14.109 19.5287C13.993 19.6154 13.849 19.666 13.6931 19.666C13.3105 19.666 12.9985 19.3541 12.9985 18.9715V12.362C12.9985 11.9794 13.3105 11.6675 13.6931 11.6675C13.849 11.6675 13.993 11.7181 14.109 11.8048L19.3494 15.0615L19.3467 15.0655C19.5387 15.1975 19.664 15.4175 19.664 15.6667C19.664 15.916 19.5387 16.136 19.3467 16.268L19.3494 16.272L14.109 19.5287Z" fill="#C0BCF0"/>
</g>
</svg>
